<svg width="26" height="26" viewBox="0 0 26 26" fill="none" xmlns="http://www.w3.org/2000/svg">
<path d="M16.255 12.868C15.8183 12.7918 15.3613 12.802 14.9144 12.8273C13.8988 12.8832 12.8832 12.9797 11.8675 12.8883C11.3851 12.8426 10.8976 12.7969 10.4101 12.807C9.52651 12.8223 8.7851 13.1117 8.34838 13.9547C8.13003 14.3711 8.07924 14.818 8.09448 15.2801C8.13003 16.5801 8.6937 17.3215 9.93276 17.6922C10.9281 17.9867 11.9488 18.0273 12.9746 18.007C13.3554 18.007 13.7363 18.0273 14.1171 18.002C14.9042 17.9563 15.6761 17.8395 16.4226 17.5652C17.1945 17.2809 17.6566 16.7375 17.8242 15.9504C17.8902 15.6457 17.9207 15.3258 17.9156 15.016C17.9054 13.9648 17.1945 13.0254 16.255 12.868ZM11.2582 16.3059C10.9281 16.6664 10.4507 16.6715 10.1105 16.3211C9.86167 16.0672 9.71948 15.6762 9.71948 15.1887C9.72963 14.8586 9.82612 14.498 10.1105 14.2086C10.4507 13.8582 10.9281 13.8633 11.2582 14.2188C11.7558 14.757 11.7558 15.7676 11.2582 16.3059ZM15.8742 16.3313C15.5644 16.6512 15.1175 16.6613 14.7874 16.3668C14.2187 15.8488 14.2187 14.6961 14.7874 14.173C15.1124 13.8734 15.5593 13.8836 15.8742 14.2035C16.1636 14.498 16.2601 14.8688 16.2753 15.2648C16.2601 15.666 16.1585 16.0316 15.8742 16.3313Z" fill="#1E1E1E"/>
<path d="M13 0C5.81953 0 0 5.81953 0 13C0 20.1805 5.81953 26 13 26C20.1805 26 26 20.1805 26 13C26 5.81953 20.1805 0 13 0ZM19.6625 14.1375C19.5914 14.7164 19.4695 15.3105 19.2613 15.8539C18.652 17.4129 17.4332 18.2711 15.8184 18.5301C14.8941 18.6773 13.9445 18.6824 12.9187 18.7586C11.9996 18.6773 10.9891 18.6672 10.009 18.4945C8.10977 18.1594 6.81992 16.8289 6.44414 14.9246C6.25117 13.9547 6.19531 12.9797 6.49492 12.0148C6.65234 11.5172 6.91133 11.0754 7.24648 10.6742C7.29219 10.6234 7.33281 10.5473 7.32773 10.4812C7.27188 9.60781 7.37344 8.74453 7.63242 7.91172C7.8457 7.21602 7.68828 7.25664 8.46016 7.45977C9.38945 7.70352 10.202 8.20625 10.9992 8.7293C11.0906 8.79023 11.2328 8.81563 11.3445 8.79531C12.4719 8.62266 13.5941 8.6125 14.7215 8.81055C14.8027 8.82578 14.9094 8.79531 14.9855 8.74961C15.6711 8.30273 16.377 7.90156 17.1488 7.62227C17.4281 7.5207 17.7227 7.45469 18.007 7.36836C18.134 7.33281 18.1898 7.37852 18.2355 7.50039C18.5809 8.46523 18.723 9.45547 18.6723 10.4762C18.6672 10.532 18.6977 10.6082 18.7332 10.6539C19.6016 11.6594 19.8199 12.8578 19.6625 14.1375Z" fill="#1E1E1E"/>
</svg>
