<svg width="24" height="24" viewBox="0 0 24 24" fill="none" xmlns="http://www.w3.org/2000/svg">
<path d="M23.0566 7.32904C22.4523 5.90011 21.5874 4.61654 20.4858 3.51462C19.3834 2.41302 18.0996 1.54768 16.6713 0.943448C15.1919 0.317602 13.6201 6.10352e-05 12 6.10352e-05C10.3802 6.10352e-05 8.80849 0.317555 7.32898 0.943448C5.90005 1.54768 4.61648 2.41307 3.51451 3.51462C2.41296 4.61654 1.54762 5.90011 0.94334 7.32904C0.317541 8.80855 0 10.3803 0 12C0 13.6201 0.317494 15.1919 0.943387 16.6714C1.54762 18.0996 2.41301 19.3835 3.51456 20.4851C4.61648 21.5874 5.90005 22.4523 7.32903 23.0566C8.80854 23.6821 10.3803 24 12 24C13.6201 24 15.1919 23.6821 16.6713 23.0566C18.0996 22.4523 19.3835 21.5874 20.4858 20.4851C21.5874 19.3835 22.4523 18.0996 23.0566 16.6714C23.6821 15.1919 24 13.6201 24 12C24 10.3803 23.6821 8.80855 23.0566 7.32904Z" fill="#ED5564"/>
<path d="M0.00479126 12.3369C0.0458081 13.8376 0.360724 15.2944 0.943397 16.6713C1.54763 18.0996 2.41302 19.3835 3.51457 20.4851C4.61649 21.5874 5.90006 22.4523 7.32904 23.0566C8.80855 23.6821 10.3803 23.9999 12 23.9999C13.6201 23.9999 15.1919 23.6821 16.6714 23.0566C18.0996 22.4523 19.3835 21.5874 20.4858 20.4851C21.5874 19.3835 22.4523 18.0996 23.0566 16.6713C23.6397 15.2944 23.9546 13.8376 23.9956 12.3369H0.00479126Z" fill="#E6E9ED"/>
<path d="M23.9428 13.1822C23.9809 12.791 24 12.397 24 12C24 11.554 23.9758 11.1116 23.9282 10.674C23.332 10.7659 22.4758 10.8856 21.397 11.0046C19.349 11.2306 16.0575 11.5001 12 11.5001C7.94273 11.5001 4.65089 11.2306 2.60337 11.0046C1.52419 10.8856 0.668316 10.7659 0.0721427 10.674C0.0241882 11.1116 0 11.554 0 12C0 12.397 0.0190318 12.7911 0.0571423 13.1822C2.00392 13.4751 6.29297 13.9995 12 13.9995C17.707 13.9995 21.996 13.4751 23.9428 13.1822Z" fill="#434A54"/>
<path d="M14.5005 12.4999C14.5005 13.8808 13.3805 15 12 15C10.6194 15 9.49988 13.8808 9.49988 12.4999C9.49988 11.1192 10.6194 10.0001 12 10.0001C13.3805 10.0001 14.5005 11.1193 14.5005 12.4999Z" fill="#E6E9ED"/>
<path d="M12 7.99991C9.51854 7.99991 7.5 10.0188 7.5 12.4999C7.5 14.981 9.51859 16.9995 12 16.9995C14.4814 16.9995 16.4999 14.9809 16.4999 12.4999C16.4999 10.0188 14.4814 7.99991 12 7.99991ZM12 14.5005C10.8974 14.5005 10.0001 13.6025 10.0001 12.4999C10.0001 11.3972 10.8973 10.5 12 10.5C13.103 10.5 13.9995 11.3972 13.9995 12.4999C13.9995 13.6025 13.103 14.5005 12 14.5005Z" fill="#434A54"/>
<path opacity="0.2" d="M23.0566 7.32904C22.4523 5.90011 21.5874 4.61654 20.4858 3.51462C19.3834 2.41302 18.0996 1.54768 16.6713 0.943448C15.1919 0.317602 13.6201 6.10352e-05 12 6.10352e-05C11.8326 6.10352e-05 11.666 0.00371739 11.5001 0.010327C12.9434 0.0689224 14.3437 0.382057 15.6709 0.943448C17.1005 1.54768 18.3837 2.41307 19.4852 3.51462C20.5868 4.61654 21.4526 5.90011 22.0567 7.32904C22.683 8.80855 22.9994 10.3803 22.9994 12.0001C22.9994 13.6201 22.683 15.1919 22.0567 16.6714C21.4526 18.0997 20.5868 19.3835 19.4852 20.4851C18.3837 21.5875 17.1005 22.4524 15.6709 23.0566C14.3437 23.6177 12.9433 23.9312 11.5001 23.9897C11.666 23.9964 11.8326 24 12 24C13.6201 24 15.1919 23.6821 16.6713 23.0566C18.0996 22.4523 19.3834 21.5874 20.4858 20.4851C21.5874 19.3835 22.4523 18.0996 23.0566 16.6714C23.6821 15.1919 24 13.6201 24 12.0001C24 10.3803 23.6821 8.80855 23.0566 7.32904Z" fill="white"/>
<path opacity="0.1" d="M0.943387 16.6714C1.54762 18.0996 2.41301 19.3835 3.51456 20.4851C4.61648 21.5874 5.90005 22.4523 7.32903 23.0566C8.80854 23.6821 10.3803 24 12 24C12.1674 24 12.334 23.9963 12.4999 23.9897C11.0566 23.9311 9.65592 23.6176 8.32876 23.0566C6.89983 22.4523 5.61663 21.5874 4.51471 20.4851C3.41279 19.3835 2.54778 18.0996 1.94317 16.6714C1.31727 15.1919 1.00015 13.6201 1.00015 12C1.00015 10.3803 1.31727 8.80851 1.94312 7.32899C2.54773 5.90006 3.41274 4.61645 4.51466 3.51495C5.61659 2.41302 6.89978 1.54764 8.32871 0.943401C9.65588 0.38201 11.0566 0.0688756 12.4999 0.0102801C12.334 0.00371739 12.1673 6.10352e-05 12 6.10352e-05C10.3802 6.10352e-05 8.80849 0.317555 7.32898 0.943448C5.90005 1.54768 4.61648 2.41307 3.51451 3.51499C2.41296 4.61654 1.54762 5.90011 0.94334 7.32904C0.317541 8.80855 0 10.3803 0 12C0 13.6201 0.317541 15.1919 0.943387 16.6714Z" fill="black"/>
</svg>
